#!OML:ASF F:\VICON\USERDATA\INSTALL\rory3\rory3.ASF
:FULLY-SPECIFIED
:DEGREES
718
root -1.21267 19.9735 -23.8412 -242.39 -48.2031 -94.6492
lowerback 0.182924 4.58094 30.0943
upperback -7.45112 6.07371 13.3909
thorax -7.24152 0.743205 -1.15148
lowerneck -14.811 7.92686 -0.423585
upperneck 39.7117 13.1506 -6.40138
head 17.6737 3.70668 -0.561099
rclavicle -4.13721e-015 6.36111e-014
rhumerus 73.312 13.8626 -46.2601
rradius 49.3517
rwrist 4.37979
rhand -28.7012 33.3128
rfingers 7.12502
rthumb -2.0631 3.34302
lclavicle -4.13721e-015 6.36111e-014
lhumerus 69.1896 2.3818 -2.32576
lradius 58.0639
lwrist -41.2399
lhand 3.79651 26.0355
lfingers 7.12502
lthumb 29.2214 53.761
rfemur -35.9327 50.4049 308.758
rtibia 44.0862
rfoot 101.056 195.578
rtoes 61.4519
lfemur -15.7225 -5.60006 14.0893
ltibia 2.52457e-014
lfoot -42.2481 29.0119
ltoes 48.1902
719
root -1.24019 20.199 -23.9625 -245.496 -50.094 -91.0624
lowerback -0.513659 5.00591 29.2392
upperback -8.03798 6.59186 12.8531
thorax -7.42194 1.02827 -1.34506
lowerneck -16.0392 7.61312 -2.62211
upperneck 40.4357 13.0073 -4.75689
head 17.9956 3.49987 0.578613
rclavicle -2.5432e-014 5.00937e-014
rhumerus 74.4069 10.8238 -44.9758
rradius 47.9499
rwrist 4.17863
rhand -27.5364 31.9218
rfingers 7.12502
rthumb -0.938141 1.94413
lclavicle -2.5432e-014 5.00937e-014
lhumerus 69.215 4.60258 -6.58179
lradius 57.2089
lwrist -38.4155
lhand 4.87857 28.6962
lfingers 7.12502
lthumb 30.2541 56.2372
rfemur -29.9485 47.5427 314.022
rtibia 43.4669
rfoot 103.736 190.997
rtoes 61.338
lfemur -16.1476 -3.63748 10.2518
ltibia -2.92213e-014
lfoot -47.1148 15.7185
ltoes 49.7356
720
root -1.28181 20.464 -24.0285 -249.362 -51.1358 -86.9495
lowerback -0.732392 5.18929 28.2012
upperback -8.68017 6.94904 13.0141
thorax -8.09903 1.1877 -0.658593
lowerneck -14.3245 7.97792 -1.74558
upperneck 39.2871 13.684 -6.211
head 17.1941 3.86833 -0.149003
rclavicle 3.27995e-015 3.02153e-014
rhumerus 75.6866 8.64511 -43.0315
rradius 47.0684
rwrist 3.52036
rhand -26.8543 30.2088
rfingers 7.12502
rthumb -0.279383 0.229236
lclavicle 3.27995e-015 3.02153e-014
lhumerus 66.7432 5.36533 -9.03102
lradius 56.6105
lwrist -40.6215
lhand 3.05397 27.3602
lfingers 7.12502
lthumb 28.5121 55.2068
rfemur -24.6305 45.5551 319.617
rtibia 42.5266
rfoot 105.91 182.821
rtoes 61.035
lfemur -15.8922 -1.48184 7.90473
ltibia -1.70955e-014
lfoot -40.7597 31.7654
ltoes 51.8982
721
root -1.32021 20.6563 -24.1468 -251.772 -53.8646 -84.1253
lowerback -1.57675 5.65867 25.6531
upperback -9.20914 7.49797 12.1722
thorax -8.17116 1.65301 -0.412406
lowerneck -12.9729 8.07191 -0.0134751
upperneck 38.0599 13.7938 -7.77321
head 16.5491 4.12189 -1.12622
rclavicle 1.45361e-014 3.57812e-014
rhumerus 76.3318 5.81349 -41.6065
rradius 46.2892
rwrist 3.27729
rhand -26.5087 28.8943
rfingers 7.12502
rthumb 0.0544411 -1.08545
lclavicle 1.45361e-014 3.57812e-014
lhumerus 65.574 7.33808 -13.7664
lradius 55.384
lwrist -40.8661
lhand 0.651809 26.6398
lfingers 7.12502
lthumb 26.2145 54.8493
rfemur -20.7063 42.0346 321.708
rtibia 41.8339
rfoot 109.612 184.699
rtoes 61.6191
lfemur -16.4427 0.44716 1.74712
ltibia -1.98785e-014
lfoot -50.505 24.571
ltoes 51.1511
722
root -1.37443 20.8465 -24.2368 -254.114 -56.4559 -80.9388
lowerback -3.01616 6.59586 23.0947
upperback -9.82545 8.46662 11.2009
thorax -7.92624 2.34072 -0.183897
lowerneck -12.0456 7.71005 0.976777
upperneck 37.3279 13.296 -8.72422
head 16.1 4.05072 -1.80206
rclavicle -6.33626e-015 1.82882e-014
rhumerus 76.1613 2.76944 -39.5563
rradius 45.7719
rwrist 2.43618
rhand -25.5963 27.556
rfingers 7.12502
rthumb 0.935628 -2.42174
lclavicle -6.33626e-015 1.82882e-014
lhumerus 65.0197 8.9656 -16.9843
lradius 54.427
lwrist -40.6656
lhand -0.435318 26.5353
lfingers 7.12502
lthumb 25.1733 54.8953
rfemur -17.5251 39.3068 323.395
rtibia 41.1789
rfoot 112.924 177.931
rtoes 61.4668
lfemur -16.7817 2.64891 -3.87213
ltibia -1.74931e-014
lfoot -53.6372 26.8277
ltoes 51.9774
723
root -1.43813 21.0302 -24.3312 -257.231 -57.6962 -76.843
lowerback -4.38106 8.00799 21.2155
upperback -10.8315 10.1336 10.8108
thorax -8.2073 3.2461 0.480593
lowerneck -10.678 6.83744 0.0032874
upperneck 37.2619 12.1996 -8.69929
head 15.5716 3.54462 -1.85567
rclavicle 4.6938e-014 1.7334e-013
rhumerus 74.7339 0.176979 -35.5537
rradius 45.7955
rwrist 0.545816
rhand -24.9794 26.0395
rfingers 7.12502
rthumb 1.53145 -3.93478
lclavicle 4.6938e-014 1.7334e-013
lhumerus 65.7132 9.87788 -17.5062
lradius 53.5431
lwrist -39.8236
lhand 0.287482 26.399
lfingers 7.12502
lthumb 25.8657 54.6599
rfemur -14.8099 38.3603 326.664
rtibia 40.9638
rfoot 116.65 163.499
rtoes 59.6854
lfemur -17.2118 4.9009 -7.91895
ltibia 3.18055e-014
lfoot -51.9271 34.8535
ltoes 49.3003
